<svg width="24" height="24" viewBox="0 0 1.08 1.08" xmlns="http://www.w3.org/2000/svg"><path class="clr-i-outline clr-i-outline-path-1" d="M.54.18A.36.36 0 1 0 .9.54.36.36 0 0 0 .54.18Zm0 .66a.3.3 0 1 1 .3-.3.3.3 0 0 1-.3.3Z"/><path class="clr-i-outline clr-i-outline-path-2" d="M.54.602A.039.039 0 0 1 .501.563v-.18a.039.039 0 1 1 .078 0v.18A.039.039 0 0 1 .54.602Z"/><path class="clr-i-outline clr-i-outline-path-3" d="M.583.691a.045.045 0 0 1-.045.045.045.045 0 0 1-.045-.045.045.045 0 0 1 .09 0z"/><path d="M0 0h1.08v1.08H0V0z" fill="none"/></svg>